<svg xmlns="http://www.w3.org/2000/svg" width="1200" height="640" viewBox="0 0 1200 640" role="img" aria-labelledby="title desc">
  <title id="title">Smart Background Nap WebView2 dashboard</title>
  <desc id="desc">A dark WebView2 dashboard preview with Nap Engine controls, live manager rows, and engine telemetry.</desc>
  <defs>
    <linearGradient id="bg" x1="0" y1="0" x2="1" y2="1">
      <stop offset="0" stop-color="#05080d"/>
      <stop offset="0.55" stop-color="#0a1422"/>
      <stop offset="1" stop-color="#05080d"/>
    </linearGradient>
    <linearGradient id="panel" x1="0" y1="0" x2="1" y2="1">
      <stop offset="0" stop-color="#101d30"/>
      <stop offset="1" stop-color="#08111e"/>
    </linearGradient>
    <linearGradient id="accent" x1="0" y1="0" x2="1" y2="1">
      <stop offset="0" stop-color="#ffa629"/>
      <stop offset="0.55" stop-color="#2ee184"/>
      <stop offset="1" stop-color="#4b93ff"/>
    </linearGradient>
    <filter id="shadow" x="-20%" y="-20%" width="140%" height="140%">
      <feDropShadow dx="0" dy="20" stdDeviation="24" flood-color="#000000" flood-opacity="0.42"/>
    </filter>
  </defs>
  <rect width="1200" height="640" fill="#111318"/>
  <g filter="url(#shadow)">
    <rect x="56" y="42" width="1088" height="556" rx="20" fill="url(#bg)" stroke="#ffa629"/>
    <rect x="56" y="42" width="76" height="556" rx="20" fill="#07101b"/>
    <rect x="79" y="72" width="40" height="40" rx="12" fill="#141c28" stroke="#6a4b1b"/>
    <path d="M101 78 L88 103 H100 L95 118 L116 93 H104 Z" fill="#ffa629"/>
    <rect x="78" y="132" width="42" height="42" rx="12" fill="#211b13" stroke="#6a4b1b"/>
    <rect x="78" y="190" width="42" height="42" rx="12" fill="#0a1422" stroke="#18283d"/>
    <rect x="78" y="248" width="42" height="42" rx="12" fill="#0a1422" stroke="#18283d"/>
    <text x="154" y="87" fill="#f4f7fb" font-family="Segoe UI, Arial, sans-serif" font-size="25" font-weight="800">Smart Nap</text>
    <text x="154" y="111" fill="#8fa1b8" font-family="Segoe UI, Arial, sans-serif" font-size="12">Background control for gaming and multitasking</text>
    <rect x="930" y="72" width="84" height="30" rx="15" fill="#113928" stroke="#1d674b"/>
    <text x="950" y="92" fill="#2ee184" font-family="Segoe UI, Arial, sans-serif" font-size="11" font-weight="900">LIVE</text>
    <rect x="1024" y="72" width="96" height="30" rx="15" fill="#113928" stroke="#1d674b"/>
    <text x="1042" y="92" fill="#2ee184" font-family="Segoe UI, Arial, sans-serif" font-size="11" font-weight="900">ACTIVE</text>
    <rect x="154" y="132" width="650" height="182" rx="13" fill="url(#panel)" stroke="#263a55"/>
    <text x="178" y="165" fill="#ffa629" font-family="Segoe UI, Arial, sans-serif" font-size="11" font-weight="900">NAP ENGINE</text>
    <text x="178" y="202" fill="#f4f7fb" font-family="Segoe UI, Arial, sans-serif" font-size="38" font-weight="900">Background apps under control</text>
    <text x="178" y="230" fill="#a7b6c9" font-family="Segoe UI, Arial, sans-serif" font-size="14">Open apps stay light while the active window instantly wakes.</text>
    <g transform="translate(178 264)">
      <rect width="112" height="30" rx="9" fill="#132238" stroke="#314967"/>
      <text x="18" y="20" fill="#7db3ff" font-family="Segoe UI, Arial, sans-serif" font-size="12" font-weight="900">CPU priority</text>
      <rect x="126" width="96" height="30" rx="9" fill="#132238" stroke="#314967"/>
      <text x="145" y="20" fill="#ffa629" font-family="Segoe UI, Arial, sans-serif" font-size="12" font-weight="900">RAM trim</text>
      <rect x="236" width="82" height="30" rx="9" fill="#132238" stroke="#314967"/>
      <text x="255" y="20" fill="#2ee184" font-family="Segoe UI, Arial, sans-serif" font-size="12" font-weight="900">EcoQoS</text>
    </g>
    <rect x="822" y="132" width="298" height="182" rx="13" fill="url(#panel)" stroke="#334964"/>
    <text x="846" y="167" fill="#f4f7fb" font-family="Segoe UI, Arial, sans-serif" font-size="24" font-weight="800">Nap Engine</text>
    <rect x="1014" y="146" width="82" height="28" rx="14" fill="#113928" stroke="#1d674b"/>
    <text x="1028" y="165" fill="#2ee184" font-family="Segoe UI, Arial, sans-serif" font-size="10" font-weight="900">ACTIVE</text>
    <circle cx="884" cy="230" r="42" fill="none" stroke="#1d2b3f" stroke-width="12"/>
    <path d="M884 188 A42 42 0 1 1 852 257" fill="none" stroke="url(#accent)" stroke-width="12" stroke-linecap="round"/>
    <text x="867" y="238" fill="#f4f7fb" font-family="Segoe UI, Arial, sans-serif" font-size="26" font-weight="900">66</text>
    <g transform="translate(946 196)">
      <rect width="70" height="50" rx="9" fill="#0e1a2b" stroke="#223650"/>
      <text x="10" y="19" fill="#71839b" font-family="Segoe UI, Arial, sans-serif" font-size="9" font-weight="900">NEXT</text>
      <text x="10" y="38" fill="#ffffff" font-family="Segoe UI, Arial, sans-serif" font-size="15" font-weight="800">04:32</text>
      <rect x="80" width="70" height="50" rx="9" fill="#0e1a2b" stroke="#223650"/>
      <text x="90" y="19" fill="#71839b" font-family="Segoe UI, Arial, sans-serif" font-size="9" font-weight="900">WAKE</text>
      <text x="90" y="38" fill="#ffffff" font-family="Segoe UI, Arial, sans-serif" font-size="15" font-weight="800">Fast</text>
    </g>
    <rect x="846" y="274" width="250" height="10" fill="#152338" stroke="#435a78"/>
    <rect x="846" y="274" width="164" height="10" fill="url(#accent)"/>
    <g transform="translate(154 332)">
      <rect width="158" height="76" rx="12" fill="#101d30" stroke="#263a55"/>
      <text x="16" y="29" fill="#8fa1b8" font-family="Segoe UI, Arial, sans-serif" font-size="12" font-weight="800">Auto mode</text>
      <text x="16" y="58" fill="#ffffff" font-family="Segoe UI, Arial, sans-serif" font-size="22" font-weight="800">On</text>
      <rect x="174" width="158" height="76" rx="12" fill="#101d30" stroke="#263a55"/>
      <text x="190" y="29" fill="#8fa1b8" font-family="Segoe UI, Arial, sans-serif" font-size="12" font-weight="800">Startup</text>
      <text x="190" y="58" fill="#ffffff" font-family="Segoe UI, Arial, sans-serif" font-size="22" font-weight="800">On</text>
      <rect x="348" width="158" height="76" rx="12" fill="#101d30" stroke="#263a55"/>
      <text x="364" y="29" fill="#8fa1b8" font-family="Segoe UI, Arial, sans-serif" font-size="12" font-weight="800">Last event</text>
      <text x="364" y="58" fill="#ffffff" font-family="Segoe UI, Arial, sans-serif" font-size="22" font-weight="800">01:42:25</text>
      <rect x="522" width="158" height="76" rx="12" fill="#101d30" stroke="#263a55"/>
      <text x="538" y="29" fill="#8fa1b8" font-family="Segoe UI, Arial, sans-serif" font-size="12" font-weight="800">Last result</text>
      <text x="538" y="58" fill="#ffffff" font-family="Segoe UI, Arial, sans-serif" font-size="18" font-weight="800">66 apps</text>
    </g>
    <rect x="154" y="426" width="650" height="136" rx="13" fill="url(#panel)" stroke="#263a55"/>
    <text x="178" y="460" fill="#f4f7fb" font-family="Segoe UI, Arial, sans-serif" font-size="20" font-weight="800">Live Manager</text>
    <rect x="178" y="480" width="602" height="30" fill="#14243a"/>
    <text x="194" y="500" fill="#9fb0c6" font-family="Segoe UI, Arial, sans-serif" font-size="11" font-weight="900">App</text>
    <text x="426" y="500" fill="#9fb0c6" font-family="Segoe UI, Arial, sans-serif" font-size="11" font-weight="900">Score</text>
    <text x="514" y="500" fill="#9fb0c6" font-family="Segoe UI, Arial, sans-serif" font-size="11" font-weight="900">Delta</text>
    <text x="622" y="500" fill="#9fb0c6" font-family="Segoe UI, Arial, sans-serif" font-size="11" font-weight="900">Action</text>
    <text x="194" y="532" fill="#dde9f8" font-family="Segoe UI, Arial, sans-serif" font-size="12">zen</text>
    <text x="426" y="532" fill="#2ee184" font-family="Segoe UI, Arial, sans-serif" font-size="12" font-weight="800">133.4</text>
    <text x="514" y="532" fill="#ffa629" font-family="Segoe UI, Arial, sans-serif" font-size="12">76.9 MB</text>
    <rect x="622" y="516" width="54" height="20" rx="6" fill="#0c3225" stroke="#176649"/>
    <text x="635" y="530" fill="#2ee184" font-family="Segoe UI, Arial, sans-serif" font-size="9" font-weight="900">P OK</text>
    <rect x="682" y="516" width="54" height="20" rx="6" fill="#0c3225" stroke="#176649"/>
    <text x="695" y="530" fill="#2ee184" font-family="Segoe UI, Arial, sans-serif" font-size="9" font-weight="900">M OK</text>
    <rect x="752" y="516" width="28" height="20" rx="6" fill="#2a2113" stroke="#6b5223"/>
    <text x="759" y="530" fill="#ffa629" font-family="Segoe UI, Arial, sans-serif" font-size="9" font-weight="900">T</text>
    <rect x="822" y="332" width="298" height="230" rx="13" fill="url(#panel)" stroke="#334964"/>
    <text x="846" y="366" fill="#f4f7fb" font-family="Segoe UI, Arial, sans-serif" font-size="20" font-weight="800">Engine Telemetry</text>
    <rect x="846" y="388" width="250" height="56" rx="10" fill="#0a1728" stroke="#223650"/>
    <text x="862" y="410" fill="#71839b" font-family="Segoe UI, Arial, sans-serif" font-size="10" font-weight="900">TOP MANAGED APP</text>
    <text x="862" y="431" fill="#ffffff" font-family="Segoe UI, Arial, sans-serif" font-size="15" font-weight="800">zen</text>
    <rect x="846" y="456" width="250" height="78" rx="10" fill="#08111d" stroke="#1d3048"/>
    <text x="862" y="481" fill="#ffa629" font-family="Consolas, monospace" font-size="11" font-weight="900">LIVE</text>
    <text x="918" y="481" fill="#dce8f8" font-family="Consolas, monospace" font-size="11">01:42:25 event now</text>
    <text x="862" y="508" fill="#ffa629" font-family="Consolas, monospace" font-size="11">01:42:11</text>
    <text x="928" y="508" fill="#dce8f8" font-family="Consolas, monospace" font-size="11">APPLY 66 apps</text>
  </g>
</svg>
